<svg xmlns="http://www.w3.org/2000/svg" width="1120" height="590" viewBox="0 0 1120 590"><rect width="1120" height="590" fill="#e8eee1"/><g font-family="Segoe UI,Malgun Gothic,sans-serif"><ellipse cx="580" cy="547" rx="403" ry="17" fill="#ced8c8" opacity=".45"/><rect x="115" y="40" width="890" height="493" rx="12" fill="#fff" stroke="#d1d9cb"/><path d="M127 40h866a12 12 0 0 1 12 12v28H115V52a12 12 0 0 1 12-12" fill="#f8faf5"/><circle cx="136" cy="60" r="4" fill="#d5a7a0"/><circle cx="151" cy="60" r="4" fill="#e3cf9d"/><circle cx="166" cy="60" r="4" fill="#a8bf9d"/><rect x="365" y="50" width="390" height="20" rx="5" fill="#edf1e8"/><text x="560" y="64" font-size="9" fill="#87927e" text-anchor="middle">LOCAL WORKSPACE / FILE ORGANIZER</text><path d="M115 80h168v453H127a12 12 0 0 1-12-12" fill="#f6f8f2"/><text x="138" y="118" font-size="15" font-weight="700" fill="#33492d">tidy.</text><text x="138" y="156" font-size="9" fill="#94a189">WORKSPACE</text><rect x="128" y="171" width="141" height="32" rx="6" fill="#e3ebd6"/><rect x="140" y="181" width="12" height="12" rx="3" fill="#718657"/><text x="164" y="192" font-size="11" fill="#415433">파일 정리</text><text x="164" y="227" font-size="11" fill="#85927d">작업 기록</text><text x="164" y="262" font-size="11" fill="#85927d">분류 규칙</text><text x="138" y="504" font-size="9" fill="#91a085">●  모든 작업이 저장되었어요</text><text x="316" y="124" font-size="10" fill="#8e9a86">TOOLS / ORGANIZER</text><text x="316" y="157" font-size="24" fill="#2e3d28" font-weight="700">흩어진 파일, 한 번에 정리.</text><text x="316" y="184" font-size="11" fill="#86917e">파일을 추가하면 이름과 폴더를 자동으로 정리해요.</text><rect x="316" y="209" width="654" height="98" rx="9" fill="#f8faf4" stroke="#cad7bb" stroke-dasharray="5 5"/><rect x="594" y="225" width="35" height="27" rx="5" fill="#e0eacb"/><path d="M601 233h22v14h-22z" fill="#9db582"/><text x="643" y="242" font-size="11" fill="#556e40">여기에 파일을 놓아주세요</text><text x="643" y="261" font-size="9" fill="#95a586">문서, 이미지, 데이터</text><rect x="316" y="328" width="654" height="34" rx="5" fill="#f4f7ee"/><text x="331" y="350" font-size="10" fill="#7d8e6f">파일 이름</text><text x="673" y="350" font-size="10" fill="#7d8e6f">분류</text><text x="846" y="350" font-size="10" fill="#7d8e6f">상태</text><rect x="331" y="376" width="20" height="23" rx="4" fill="#e9e3f2"/><text x="364" y="392" font-size="11" fill="#5c6b50">sample_notes.md</text><text x="673" y="392" font-size="10" fill="#849576">문서</text><rect x="840" y="377" width="62" height="21" rx="10" fill="#eef5e5"/><text x="871" y="392" font-size="9" fill="#758f58" text-anchor="middle">✓ 정리 완료</text><path d="M316 410h654" stroke="#eff2e9"/><rect x="331" y="414" width="20" height="23" rx="4" fill="#f1e5d3"/><text x="364" y="430" font-size="11" fill="#5c6b50">sample_cover.png</text><text x="673" y="430" font-size="10" fill="#849576">이미지</text><rect x="840" y="415" width="62" height="21" rx="10" fill="#eef5e5"/><text x="871" y="430" font-size="9" fill="#758f58" text-anchor="middle">✓ 정리 완료</text><path d="M316 448h654" stroke="#eff2e9"/><rect x="331" y="452" width="20" height="23" rx="4" fill="#e2ecd7"/><text x="364" y="468" font-size="11" fill="#5c6b50">sample_list.csv</text><text x="673" y="468" font-size="10" fill="#849576">데이터</text><rect x="840" y="453" width="62" height="21" rx="10" fill="#eef5e5"/><text x="871" y="468" font-size="9" fill="#758f58" text-anchor="middle">✓ 정리 완료</text><path d="M316 486h654" stroke="#eff2e9"/><rect x="842" y="491" width="128" height="27" rx="6" fill="#3a5030"/><text x="906" y="509" text-anchor="middle" font-size="10" fill="#fff">정리된 폴더 열기 ↗</text></g></svg>